<svg xmlns="http://www.w3.org/2000/svg" version="1.1" xmlns:xlink="http://www.w3.org/1999/xlink">
    <defs>
        <symbol id="menu" viewBox="0 0 24 24"  
            fill="none"  
            stroke="currentColor"  
            stroke-width="2"  
            stroke-linecap="round"  
            stroke-linejoin="round">
            <path stroke="none" d="M0 0h24v24H0z" fill="none"/>
            <path d="M4 8l16 0" />
            <path d="M4 16l16 0" />
        </symbol>

        <symbol id="close" viewBox="0 0 24 24" 
            fill="none" 
            stroke="currentColor" 
            stroke-width="2" 
            stroke-linecap="round" 
            stroke-linejoin="round">
            <path stroke="none" d="M0 0h24v24H0z" fill="none"/>
            <path d="M18 6L6 18" />
            <path d="M6 6l12 12" />
        </symbol>

        <symbol id="sun" viewBox="0 0 24 24" 
            fill="none" 
            stroke-linecap="round" 
            stroke-linejoin="round" 
            stroke-width="2">
            <circle cx="12" cy="12" r="5"/>
            <path d="M12 1v2"/>
            <path d="M12 21v2"/>
            <path d="M4.22 4.22l1.42 1.42"/>
            <path d="M18.36 18.36l1.42 1.42"/>
            <path d="M1 12h2"/>
            <path d="M21 12h2"/>
            <path d="M4.22 19.78l1.42-1.42"/>
            <path d="M18.36 5.64l1.42-1.42"/>
        </symbol>
      
        <symbol id="moon" viewBox="0 0 24 24" 
            fill="none" 
            stroke-linecap="round" 
            stroke-linejoin="round" 
            stroke-width="2">
            <path d="M21 12.79A9 9 0 1111.21 3 7 7 0 0021 12.79z"/>
        </symbol>

        <symbol id='logo' x="0" y="0" viewBox="0 0 96 96"
            fill="currentColor"
            stroke="none"
            opacity="1">
            <path d="M97,95c0.6,3-1.8,1.9-3,1.9c-16.1,0-32.2,0-48.4,0c-14.8,0-29.6,0-44.7,0c0-16,0-32.1,0.3-48.2c7.6-7.4,15-14.6,22.2-22c0.9-0.9,1.4-2.6,1.4-4c0.1-7.3,0-14.7-0.1-22c23.9,0,47.8,0,71.9,0c0,8.4,0,16.8-0.3,25.2c-3.8,3.4-7.4,6.5-10.7,9.9c-4.4,4.5-10.4,8.6-12.5,14.1c-2.2,5.6-0.6,12.8-0.8,19.2c-0.1,1.4,0.9,3,1.9,4.2c4.3,4.8,8.7,9.6,13.3,14.2c2.7,2.7,5.8,4.9,8.7,7.4zM27,63.4c0,2.4,0,4.9,0,7.6c6.8,0,13.1,0.1,19.4,0c1.5-0.1,3.4-0.6,4.4-1.6c6.2-5.9,12.3-12,18.2-18.1c1-1,1.9-2.5,1.9-3.9c0.2-6.8,0.1-13.6,0-20.4c-15,0-29.4,0-44.1,0c0,11.9,0,23.5,0,36.2z"/>
        </symbol>

        <symbol id='clock' viewBox="0 0 24 24"
            fill="none"  
            stroke="currentColor"  
            stroke-width="2"  
            stroke-linecap="round"  
            stroke-linejoin="round">
            <path d="M3 12a9 9 0 1 0 18 0a9 9 0 0 0 -18 0" />
            <path d="M12 7v5l3 3" />
        </symbol>

        <symbol id='calender' viewBox="0 0 24 24"
            fill="none"  
            stroke="currentColor"  
            stroke-width="2"  
            stroke-linecap="round"  
            stroke-linejoin="round">
            <path stroke="none" d="M0 0h24v24H0z" fill="none"/>
            <path d="M4 5m0 2a2 2 0 0 1 2 -2h12a2 2 0 0 1 2 2v12a2 2 0 0 1 -2 2h-12a2 2 0 0 1 -2 -2z" />
            <path d="M16 3l0 4" />
            <path d="M8 3l0 4" />
            <path d="M4 11l16 0" />
            <path d="M8 15h2v2h-2z" />
        </symbol>

        <symbol id='github' viewBox="0 0 24 24"  
            fill="none"  
            stroke="currentColor"  
            stroke-width="2"  
            stroke-linecap="round"  
            stroke-linejoin="round">
            <path d="M9 19c-4.3 1.4 -4.3 -2.5 -6 -3m12 5v-3.5c0 -1 .1 -1.4 -.5 -2c2.8 -.3 5.5 -1.4 5.5 -6a4.6 4.6 0 0 0 -1.3 -3.2a4.2 4.2 0 0 0 -.1 -3.2s-1.1 -.3 -3.5 1.3a12.3 12.3 0 0 0 -6.2 0c-2.4 -1.6 -3.5 -1.3 -3.5 -1.3a4.2 4.2 0 0 0 -.1 3.2a4.6 4.6 0 0 0 -1.3 3.2c0 4.6 2.7 5.7 5.5 6c-.6 .6 -.6 1.2 -.5 2v3.5" />
        </symbol>

        <symbol id='rss' viewBox="0 0 24 24"
            fill="none"  
            stroke="currentColor"  
            stroke-width="2"  
            stroke-linecap="round"  
            stroke-linejoin="round">
            <path stroke="none" d="M0 0h24v24H0z" fill="none"/>
            <path d="M5 19m-1 0a1 1 0 1 0 2 0a1 1 0 1 0 -2 0" />
            <path d="M4 4a16 16 0 0 1 16 16" />
            <path d="M4 11a9 9 0 0 1 9 9" />
        </symbol>

        <symbol id='whatsapp' viewBox="0 0 24 24"
            fill="none"  
            stroke="currentColor"  
            stroke-width="2"  
            stroke-linecap="round"  
            stroke-linejoin="round">
            <path d="M3 21l1.65 -3.8a9 9 0 1 1 3.4 2.9l-5.05 .9" />
            <path d="M9 10a.5 .5 0 0 0 1 0v-1a.5 .5 0 0 0 -1 0v1a5 5 0 0 0 5 5h1a.5 .5 0 0 0 0 -1h-1a.5 .5 0 0 0 0 1" />
        </symbol>

        <symbol id='twitter' viewBox="0 0 24 24"
            fill="none"  
            stroke="currentColor"  
            stroke-width="2"  
            stroke-linecap="round"  
            stroke-linejoin="round">
            <path d="M4 4l11.733 16h4.267l-11.733 -16z" />
            <path d="M4 20l6.768 -6.768m2.46 -2.46l6.772 -6.772" />
        </symbol>

        <symbol id='tiktok' viewBox="0 0 24 24"
            fill="none"  
            stroke="currentColor"  
            stroke-width="2"  
            stroke-linecap="round"  
            stroke-linejoin="round">
            <path d="M21 7.917v4.034a9.948 9.948 0 0 1 -5 -1.951v4.5a6.5 6.5 0 1 1 -8 -6.326v4.326a2.5 2.5 0 1 0 4 2v-11.5h4.083a6.005 6.005 0 0 0 4.917 4.917z" />
        </symbol>

        <symbol id='instagram' viewBox="0 0 24 24"
            fill="none"  
            stroke="currentColor"  
            stroke-width="2"  
            stroke-linecap="round"  
            stroke-linejoin="round">
            <path d="M4 8a4 4 0 0 1 4 -4h8a4 4 0 0 1 4 4v8a4 4 0 0 1 -4 4h-8a4 4 0 0 1 -4 -4z" />
            <path d="M9 12a3 3 0 1 0 6 0a3 3 0 0 0 -6 0" />
            <path d="M16.5 7.5v.01" />
        </symbol>

        <symbol id='youtube' viewBox="0 0 24 24"
            fill="none"  
            stroke="currentColor"  
            stroke-width="2"  
            stroke-linecap="round"  
            stroke-linejoin="round">
            <path d="M2 8a4 4 0 0 1 4 -4h12a4 4 0 0 1 4 4v8a4 4 0 0 1 -4 4h-12a4 4 0 0 1 -4 -4v-8z" />
            <path d="M10 9l5 3l-5 3z" />
        </symbol>

        <symbol id='facebook' viewBox="0 0 24 24"
            fill="none"  
            stroke="currentColor"  
            stroke-width="2"  
            stroke-linecap="round"  
            stroke-linejoin="round">
            <path stroke="none" d="M0 0h24v24H0z" fill="none"/>
            <path d="M7 10v4h3v7h4v-7h3l1 -4h-4v-2a1 1 0 0 1 1 -1h3v-4h-3a5 5 0 0 0 -5 5v2h-3" />
        </symbol>

        <symbol id='copy' viewBox="0 0 24 24"
            fill="none"  
            stroke="currentColor"  
            stroke-width="2"  
            stroke-linecap="round"  
            stroke-linejoin="round">
            <path stroke="none" d="M0 0h24v24H0z" fill="none"/>
            <path d="M7 7m0 2.667a2.667 2.667 0 0 1 2.667 -2.667h8.666a2.667 2.667 0 0 1 2.667 2.667v8.666a2.667 2.667 0 0 1 -2.667 2.667h-8.666a2.667 2.667 0 0 1 -2.667 -2.667z" />
            <path d="M4.012 16.737a2.005 2.005 0 0 1 -1.012 -1.737v-10c0 -1.1 .9 -2 2 -2h10c.75 0 1.158 .385 1.5 1" />
        </symbol>

        <symbol id='check' viewBox="0 0 24 24"
            fill="none"  
            stroke="currentColor"  
            stroke-width="2"  
            stroke-linecap="round"  
            stroke-linejoin="round">
            <path stroke="none" d="M0 0h24v24H0z" fill="none"/>
            <path d="M5 12l5 5l10 -10" />
        </symbol>

        <symbol id='arrow-up' viewBox="0 0 24 24"
            fill="none"
            stroke="currentColor"
            strokeWidth="2"
            strokeLinecap="round"
            strokeLinejoin="round">
            <path d="M5 15l7-7 7 7" />
        </symbol>

        <symbol id='breadcrumb' viewBox="0 0 24 24"
            fill="none"
            stroke="currentColor"
            strokeWidth="2"
            strokeLinecap="round"
            strokeLinejoin="round">
            <path strokeLinecap="round" strokeLinejoin="round" d="M9 5l7 7-7 7" />
        </symbol>
    </defs>
</svg>
