<svg xmlns="http://www.w3.org/2000/svg">
  <defs>
    <!-- menu -->
    <symbol id="menu" viewBox="0 0 24 24"  
      fill="none"  
      stroke="currentColor"  
      stroke-width="2"  
      stroke-linecap="round"  
      stroke-linejoin="round">
      <path stroke="none" d="M0 0h24v24H0z" fill="none"/>
      <path d="M4 8l16 0" />
      <path d="M4 16l16 0" />
    </symbol>

    <!-- close -->
    <symbol id="close" viewBox="0 0 24 24" fill="none" stroke="currentColor" stroke-width="2" stroke-linecap="round" stroke-linejoin="round">
      <path stroke="none" d="M0 0h24v24H0z" fill="none"/>
      <path d="M18 6L6 18" />
      <path d="M6 6l12 12" />
    </symbol>  
    
    <!-- Bookmark -->
    <symbol id="bookmarked" 
      viewBox="0 0 24 24"
      fill="none"  
      stroke="currentColor"  
      stroke-width="2"  
      stroke-linecap="round"  
      stroke-linejoin="round">
     
      <path d="M15 10v11l-5 -3l-5 3v-11a3 3 0 0 1 3 -3h4a3 3 0 0 1 3 3z" />
      <path d="M11 3h5a3 3 0 0 1 3 3v11" />
    </symbol>

    <symbol id="bookmark" 
      viewBox="0 0 24 24"
      fill="currentColor"  
      stroke="none"  
      stroke-width="2"  
      stroke-linecap="round"  
      stroke-linejoin="round">
     
      <path d="M15 10v11l-5 -3l-5 3v-11a3 3 0 0 1 3 -3h4a3 3 0 0 1 3 3z" />
      <path d="M11 3h5a3 3 0 0 1 3 3v11" />
    </symbol>

    <!-- search -->
    <symbol id="search" viewBox="0 1 24 24" fill="none" stroke-linecap="round" stroke-linejoin="round" stroke-width="1.5">
      <path d="M11 17.25a6.25 6.25 0 110-12.5 6.25 6.25 0 010 12.5z"/>
      <path d="M16 16l4.5 4.5"/>
    </symbol>

    <!-- rss -->
    <symbol id="rss" viewBox="0 0 24 24" fill="none" stroke-linecap="round" stroke-linejoin="round" stroke-width="1.5">
      <path d="M4 11a9 9 0 019 9"/>
      <path d="M4 4a16 16 0 0116 16"/>
      <circle cx="5" cy="19" r="1"/>
    </symbol>

    <!-- sun -->
    <symbol id="sun" viewBox="0 0 24 24" fill="none" stroke-linecap="round" stroke-linejoin="round" stroke-width="1.5">
      <circle cx="12" cy="12" r="5"/>
      <path d="M12 1v2"/>
      <path d="M12 21v2"/>
      <path d="M4.22 4.22l1.42 1.42"/>
      <path d="M18.36 18.36l1.42 1.42"/>
      <path d="M1 12h2"/>
      <path d="M21 12h2"/>
      <path d="M4.22 19.78l1.42-1.42"/>
      <path d="M18.36 5.64l1.42-1.42"/>
    </symbol>

    <!-- moon -->
    <symbol id="moon" viewBox="0 0 24 24" fill="none" stroke-linecap="round" stroke-linejoin="round" stroke-width="1.5">
      <path d="M21 12.79A9 9 0 1111.21 3 7 7 0 0021 12.79z"/>
    </symbol>

    <!-- spacer -->
    <symbol 
      id="spacer" 
      viewBox="0 0 24 24"  
      fill="none"  
      stroke="currentColor"  
      stroke-width="2"  
      stroke-linecap="round"  
      stroke-linejoin="round">
      <path stroke="none" d="M0 0h24v24H0z" fill="none"/>
      <path d="M3 12l0 .01" />
      <path d="M7 12l10 0" />
      <path d="M21 12l0 .01" />
    </symbol>

    <!-- book-open -->
    <symbol id="book-open" fill="none" stroke-linecap="round" stroke-linejoin="round" stroke-width="1.5" viewBox="0 0 24 24">
      <path d="M2 3h6a4 4 0 014 4v14a3 3 0 00-3-3H2z"/>
      <path d="M22 3h-6a4 4 0 00-4 4v14a3 3 0 013-3h7z"/>
    </symbol>

    <!-- arrow-right -->
    <symbol id="arrow-right" fill="none" stroke-linecap="round" stroke-linejoin="round" stroke-width="1.5" viewBox="0 0 24 24">
      <path d="M5 12h14"/>
      <path d="M12 5l7 7-7 7"/>
    </symbol>

    <!-- backtotop -->
    <symbol id="backtotop" 
      viewBox="0 0 24 24"  
      fill="none"  
      stroke="currentColor"  
      stroke-width="2"  
      stroke-linecap="round"  
      stroke-linejoin="round">
      <path stroke="none" d="M0 0h24v24H0z" fill="none"/>
      <path d="M16 12l-4 -4l-4 4" />
      <path d="M12 16v-8" />
      <path d="M3 3m0 2a2 2 0 0 1 2 -2h14a2 2 0 0 1 2 2v14a2 2 0 0 1 -2 2h-14a2 2 0 0 1 -2 -2z" />
    </symbol>

    <!-- arrow up-->
     <symbol 
      id="arrow-up"
      viewBox="0 0 24 24"
      fill="none"
      stroke="currentColor"
      stroke-width="2"
      stroke-linecap="round"
      stroke-linejoin="round">
      <path stroke="none" d="M0 0h24v24H0z" fill="none"/>
      <path d="M6 15l6 -6l6 6" />
    </symbol>

    <!-- arrow -left -->
     <symbol 
      id="arrow-left"
      viewBox="0 0 24 24" 
      fill="none" 
      stroke-width="2" 
      stroke-linecap="round" 
      stroke-linejoin="round"
      class="items-center stroke-[var(--color-muted)] group-hover:stroke-[var(--color-fg)]">
      <line x1="19" y1="12" x2="5" y2="12" class="scale-x-0 group-hover:scale-x-100 translate-x-3 group-hover:translate-x-0 transition-all duration-300 ease-in-out" />
      <polyline points="12 19 5 12 12 5" class="translate-x-1 group-hover:translate-x-0 transition-all duration-300 ease-in-out" />
    </symbol>

    <!-- bread crumb -->
    <symbol id="breadcrumb"
      fill="none"
      stroke="currentColor"
      strokeLinecap="round"
      strokeLinejoin="round"
      stroke-width="2"
      viewBox="0 0 24 24">
      <polyline points="9 18 15 12 9 6" />
    </symbol>

    <!-- system -->
    <symbol id="system" 
      viewBox="0 0 24 24"  
      fill="none"  
      stroke="currentColor"  
      stroke-width="1.5"  
      stroke-linecap="round"  
      stroke-linejoin="round">
      <path stroke="none" d="M0 0h24v24H0z" fill="none"/>
      <path d="M6 5a2 2 0 0 1 2 -2h8a2 2 0 0 1 2 2v14a2 2 0 0 1 -2 2h-8a2 2 0 0 1 -2 -2v-14z" />
      <path d="M11 4h2" />'
      <path d="M12 17v.01" />
    </symbol>

    <!-- link -->
    <symbol id="link" viewBox="0 0 16 16">
      <path d="M8.46968 1.46968C10.1433 -0.203925 12.8567 -0.203923 14.5303 1.46968C16.2039 3.14329 16.2039 5.85674 14.5303 7.53034L12.0303 10.0303L10.9697 8.96968L13.4697 6.46968C14.5575 5.38186 14.5575 3.61816 13.4697 2.53034C12.3819 1.44252 10.6182 1.44252 9.53034 2.53034L7.03034 5.03034L5.96968 3.96968L8.46968 1.46968ZM11.5303 5.53034L5.53034 11.5303L4.46968 10.4697L10.4697 4.46968L11.5303 5.53034ZM1.46968 14.5303C3.14329 16.2039 5.85673 16.204 7.53034 14.5303L10.0303 12.0303L8.96968 10.9697L6.46968 13.4697C5.38186 14.5575 3.61816 14.5575 2.53034 13.4697C1.44252 12.3819 1.44252 10.6182 2.53034 9.53034L5.03034 7.03034L3.96968 5.96968L1.46968 8.46968C-0.203923 10.1433 -0.203925 12.8567 1.46968 14.5303Z"/>
    </symbol>

    <!-- Logo -->
    <symbol id='logo' fill="none"  stroke="currentColor" stroke-width="1.5"  stroke-linecap="round" stroke-linejoin="round" viewBox="0 0 24 24">
      <path d="M14.972 3.483c.163 .196 .247 .46 .413 .987l3.64 11.53a15.5 15.5 0 0 0 -4.352 -1.42l-2.37 -7.723a.31 .31 0 0 0 -.296 -.213a.31 .31 0 0 0 -.295 .214l-2.342 7.718a15.5 15.5 0 0 0 -4.37 1.422l3.657 -11.53c.168 -.527 .251 -.79 .415 -.986c.144 -.172 .331 -.306 .544 -.388c.242 -.094 .527 -.094 1.099 -.094h2.612c.572 0 .858 0 1.1 .094c.213 .082 .4 .217 .545 .39" />
      <path d="M9 18c0 1.5 2 3 3 4c1 -1 3 -3 3 -4q -3 1.5 -6 0" />
    </symbol>

    <symbol id='featured' viewBox="0 0 24 24"  fill="currentColor">
      <path stroke="none" d="M0 0h24v24H0z" fill="none"/>
      <path d="M12.01 2.011a3.2 3.2 0 0 1 2.113 .797l.154 .145l.698 .698a1.2 1.2 0 0 0 .71 .341l.135 .008h1a3.2 3.2 0 0 1 3.195 3.018l.005 .182v1c0 .27 .092 .533 .258 .743l.09 .1l.697 .698a3.2 3.2 0 0 1 .147 4.382l-.145 .154l-.698 .698a1.2 1.2 0 0 0 -.341 .71l-.008 .135v1a3.2 3.2 0 0 1 -3.018 3.195l-.182 .005h-1a1.2 1.2 0 0 0 -.743 .258l-.1 .09l-.698 .697a3.2 3.2 0 0 1 -4.382 .147l-.154 -.145l-.698 -.698a1.2 1.2 0 0 0 -.71 -.341l-.135 -.008h-1a3.2 3.2 0 0 1 -3.195 -3.018l-.005 -.182v-1a1.2 1.2 0 0 0 -.258 -.743l-.09 -.1l-.697 -.698a3.2 3.2 0 0 1 -.147 -4.382l.145 -.154l.698 -.698a1.2 1.2 0 0 0 .341 -.71l.008 -.135v-1l.005 -.182a3.2 3.2 0 0 1 3.013 -3.013l.182 -.005h1a1.2 1.2 0 0 0 .743 -.258l.1 -.09l.698 -.697a3.2 3.2 0 0 1 2.269 -.944zm3.697 7.282a1 1 0 0 0 -1.414 0l-3.293 3.292l-1.293 -1.292l-.094 -.083a1 1 0 0 0 -1.32 1.497l2 2l.094 .083a1 1 0 0 0 1.32 -.083l4 -4l.083 -.094a1 1 0 0 0 -.083 -1.32z" />
    </symbol>
  </defs>
</svg>